<?xml version="1.0" encoding="utf-8"?>
<!-- Generator: Adobe Illustrator 26.2.1, SVG Export Plug-In . SVG Version: 6.00 Build 0)  -->
<svg version="1.1" id="Layer_1" xmlns="http://www.w3.org/2000/svg" xmlns:xlink="http://www.w3.org/1999/xlink" x="0px" y="0px"
	 viewBox="0 0 455 517" style="enable-background:new 0 0 455 517;" xml:space="preserve">
<style type="text/css">
	.st0{fill:#E0C170;}
</style>
<path class="st0" d="M97.8,425.7c-13.8,0-26,0.3-38.1-0.3c-2-0.1-4.5-3.6-5.5-6c-1-2.3-0.3-5.2-0.3-7.9c0-102.4,0-204.8,0-307.2
	c0-13.2,0-13.2,12.8-13.2c60.3,0,120.5,0,180.8,0c20.8,0,41.1,3.3,59.9,12.2c37.7,17.8,63.9,46.8,80,85.1
	c16.4,39.1,18.1,79.1,7,119.7c-7.1,26.3-20.7,50.4-39.5,70c-19.1,20.2-41.1,34.4-67.7,42.5c-13.9,4.2-25.3,3.3-35.9-7.9
	C239.9,401,227.6,390,215.4,379c-21-19-42.3-37.7-63.6-56.4c-1.6-1.5-3.7-2.5-7.1-4.7v107h-25.3c-0.2-3.6-0.5-7.1-0.5-10.7
	c0-77.5,0.1-155.1-0.2-232.6c0-8.7,1.8-12.2,11.4-12c36.1,0.6,72.2,0.6,108.3,0.1c27.9-0.4,48.1,11.4,59,36.9
	c10.2,23.8,6,55-13.8,74.6c-12.4,12.2-26.5,16.6-42.8,16.7c-23.8,0.2-47.6,0-74,0c4.9,5.7,7.9,10.1,11.8,13.6
	c11.9,10.9,24.2,21.4,36.3,32.1c17.4,15.6,34.9,31.1,52,47c5.1,4.7,10,5.4,16.2,3.1c52-18.9,81.6-56.8,91-110.3
	c7.8-44.4-3.2-84.4-33-119.1c-25.8-30.2-58.1-46.2-97.6-46.5c-51.7-0.5-103.3,0-155-0.2c-7.3,0-9.8,2.3-9.8,9.7
	c0.2,87.5,0.2,175,0,262.4c0,6.7,1.9,10.2,9,9c8.4-1.4,11.1,2.5,10.2,10.6C97.4,414.2,97.8,419.2,97.8,425.7z M199,197
	c-14.9,0-29.7,0.2-44.6-0.1c-7.3-0.2-10.8,1.5-10.5,9.9c0.6,18.2,0.4,36.4,0,54.5c-0.2,7.2,1.9,9.9,9.5,9.8
	c29.1-0.4,58.1-0.3,87.2-0.1c15.4,0.1,26-6.6,33.2-20.4c10.9-21-2.7-55.3-32.2-53.7C227.4,197.6,213.2,197,199,197z"/>
</svg>
